<svg width="27" height="37" viewBox="0 0 27 37" fill="none" xmlns="http://www.w3.org/2000/svg">
    <g id="logo-small">
        <path d="M14.7704 3.95967C14.7704 3.06159 15.0801 2.30287 15.6994 1.68351C16.3498 1.03317 17.124 0.708008 18.022 0.708008C18.9201 0.708008 19.6788 1.03317 20.2982 1.68351C20.9485 2.30287 21.2737 3.06159 21.2737 3.95967C21.2737 4.85775 20.9485 5.63195 20.2982 6.28228C19.6788 6.90165 18.9201 7.21133 18.022 7.21133C17.124 7.21133 16.3498 6.90165 15.6994 6.28228C15.0801 5.63195 14.7704 4.85775 14.7704 3.95967Z" fill="#current"/>
        <path d="M26.045 22.867V21.0344C26.045 20.7063 25.7831 20.4594 25.4807 20.4429C24.988 20.416 24.3447 20.2683 23.8384 19.9718C23.339 19.6792 23.0253 19.2793 23.0253 18.7374V13.4513C23.0253 12.4787 22.7071 11.6503 22.0579 10.9994C21.4302 10.3437 20.6104 10.0253 19.638 10.0253H16.2441C15.9199 10.0253 15.6571 10.2881 15.6571 10.6123V13.0384C15.6571 13.3625 15.9199 13.6253 16.2441 13.6253H18.554C18.828 13.6253 18.9624 13.6994 19.036 13.7812C19.1169 13.871 19.193 14.046 19.193 14.3804V18.6987C19.193 19.9345 20.0304 21.0134 20.9149 21.9339C20.493 22.3756 20.0898 22.8506 19.7808 23.3536C19.4347 23.917 19.193 24.5376 19.193 25.2027V31.9522C19.193 32.2866 19.1169 32.4616 19.036 32.5514C18.9624 32.6332 18.828 32.7073 18.554 32.7073H16.2441C15.9199 32.7073 15.6571 32.9701 15.6571 33.2942V35.7203C15.6571 36.0445 15.9199 36.3073 16.2441 36.3073H19.638C20.6104 36.3073 21.4302 35.9889 22.0579 35.3332C22.7071 34.6823 23.0253 33.8539 23.0253 32.8813V25.1639C23.0253 24.622 23.339 24.2221 23.8384 23.9296C24.3447 23.6331 24.988 23.4854 25.4807 23.4585C25.7831 23.4419 26.045 23.1951 26.045 22.867Z" fill="#current" stroke="#current" stroke-width="0.0900223"/>
        <path d="M0.954989 20.9595V22.7922C0.954989 23.1203 1.21689 23.3671 1.51926 23.3836C2.01197 23.4106 2.6553 23.5583 3.16155 23.8548C3.661 24.1473 3.97469 24.5472 3.97469 25.0891V32.9116C3.97469 33.8842 4.29284 34.7126 4.94204 35.3635C5.56971 36.0192 6.38951 36.3376 7.36195 36.3376H10.7559C11.0801 36.3376 11.3428 36.0748 11.3428 35.7506V33.3245C11.3428 33.0004 11.0801 32.7376 10.7559 32.7376H8.44594C8.172 32.7376 8.03758 32.6635 7.96398 32.5817C7.88312 32.4919 7.80697 32.3168 7.80697 31.9825V25.1278C7.80697 24.4628 7.56527 23.8422 7.21913 23.2788C6.91013 22.7758 6.50696 22.3008 6.08504 21.8591C6.96954 20.9386 7.80697 19.8597 7.80697 18.6239V6.18853C7.80697 5.85414 7.88311 5.67912 7.96399 5.58927C8.03758 5.5075 8.172 5.43342 8.44594 5.43342H10.7559C11.0801 5.43342 11.3428 5.17063 11.3428 4.84646V2.42036C11.3428 2.0962 11.0801 1.83341 10.7559 1.83341H7.36195C6.38953 1.83341 5.56972 2.15177 4.94205 2.80747C4.29284 3.45842 3.97469 4.28681 3.97469 5.25939V18.6626C3.97469 19.2045 3.661 19.6044 3.16155 19.897C2.6553 20.1935 2.01197 20.3412 1.51926 20.3681C1.21689 20.3846 0.954989 20.6315 0.954989 20.9595Z" fill="#current" stroke="#current" stroke-width="0.0900223"/>
    </g>
</svg>
